<?xml version="1.0"?>
<svg xmlns="http://www.w3.org/2000/svg" xmlns:xlink="http://www.w3.org/1999/xlink" version="1.1" viewBox="0 0 172 172" width="64px" height="64px"><g fill="none" fill-rule="nonzero" stroke="none" stroke-width="1" stroke-linecap="butt" stroke-linejoin="miter" stroke-miterlimit="10" stroke-dasharray="" stroke-dashoffset="0" font-family="none" font-weight="none" font-size="none" text-anchor="none" style="mix-blend-mode: normal"><path d="M0,172v-172h172v172z" fill="none"/><g fill="#2a6496"><g id="surface1"><path d="M62.19043,26.875c-22.48682,0 -41.86621,16.43994 -45.75049,38.45435c-1.28076,0.60889 -2.40405,1.52222 -3.2124,2.71899c-1.51172,2.22559 -1.80566,5.04956 -0.81885,7.54809c0.94482,2.28858 2.18359,4.35669 3.71631,6.18335v16.41895c-3.2229,1.85815 -5.375,5.32251 -5.375,9.30127c0,3.97876 2.1521,7.44311 5.375,9.30127v14.88623c0,7.42212 6.01538,13.4375 13.4375,13.4375h112.875c7.42212,0 13.4375,-6.01538 13.4375,-13.4375v-14.88623c3.2229,-1.85816 5.375,-5.32251 5.375,-9.30127c0,-3.97876 -2.1521,-7.44311 -5.375,-9.30127v-16.41895c1.53272,-1.82666 2.77148,-3.89478 3.70581,-6.18335c0.99732,-2.49853 0.70337,-5.32251 -0.80835,-7.54809c-0.80835,-1.19678 -1.93164,-2.11011 -3.2019,-2.71899c-3.89478,-22.0144 -23.27417,-38.45435 -45.76099,-38.45435zM62.19043,32.25h47.61914c19.28491,0 36.03979,13.65796 40.15503,32.25h-127.9397c4.12573,-18.59204 20.88061,-32.25 40.16553,-32.25zM75.25,37.625c-1.48022,0 -2.6875,1.20728 -2.6875,2.6875c0,1.48022 1.20728,2.6875 2.6875,2.6875h5.375c1.48022,0 2.6875,-1.20728 2.6875,-2.6875c0,-1.48022 -1.20728,-2.6875 -2.6875,-2.6875zM99.4375,43c-1.48022,0 -2.6875,1.20728 -2.6875,2.6875c0,1.48022 1.20728,2.6875 2.6875,2.6875h5.375c1.48022,0 2.6875,-1.20728 2.6875,-2.6875c0,-1.48022 -1.20728,-2.6875 -2.6875,-2.6875zM43,45.6875c-1.48022,0 -2.6875,1.20728 -2.6875,2.6875c0,1.48022 1.20728,2.6875 2.6875,2.6875h5.375c1.48022,0 2.6875,-1.20728 2.6875,-2.6875c0,-1.48022 -1.20728,-2.6875 -2.6875,-2.6875zM126.3125,51.0625c-1.48022,0 -2.6875,1.20728 -2.6875,2.6875c0,1.48022 1.20728,2.6875 2.6875,2.6875h5.375c1.48022,0 2.6875,-1.20728 2.6875,-2.6875c0,-1.48022 -1.20728,-2.6875 -2.6875,-2.6875zM69.875,53.75c-1.48022,0 -2.6875,1.20728 -2.6875,2.6875c0,1.48022 1.20728,2.6875 2.6875,2.6875h5.375c1.48022,0 2.6875,-1.20728 2.6875,-2.6875c0,-1.48022 -1.20728,-2.6875 -2.6875,-2.6875zM19.91479,69.875h132.17041c0.91333,0 1.72168,0.43042 2.23608,1.17578c0.50391,0.78735 0.60889,1.70068 0.26245,2.53003c-0.94482,2.37256 -2.34106,4.40918 -4.08374,6.10986c-2.20459,2.1731 -4.97607,3.72681 -8.03101,4.39868c-7.64258,1.69018 -15.37964,-1.6377 -19.19043,-8.35645c-0.11548,-0.18897 -0.22046,-0.34644 -0.37793,-0.48291c-0.48291,-0.5354 -1.20728,-0.86084 -1.96314,-0.86084c-0.75586,0 -1.48022,0.32544 -1.96314,0.86084c-0.15747,0.13647 -0.26245,0.29395 -0.37793,0.48291c-3.08642,5.42749 -8.89184,8.81836 -15.12768,8.81836c-6.23584,0 -12.04126,-3.39087 -15.12768,-8.81836c-0.11548,-0.18897 -0.22046,-0.34644 -0.37793,-0.48291c-0.48291,-0.5354 -1.20728,-0.86084 -1.96314,-0.86084c-0.75586,0 -1.48022,0.32544 -1.96314,0.86084c-0.15747,0.13647 -0.26245,0.29395 -0.37793,0.48291c-3.08642,5.42749 -8.89184,8.81836 -15.12768,8.81836c-6.23584,0 -12.04126,-3.39087 -15.12768,-8.81836c-0.11548,-0.18897 -0.24146,-0.34644 -0.37793,-0.48291c-1.01831,-1.01831 -2.90796,-1.01831 -3.92627,0c-0.13647,0.13647 -0.26245,0.29395 -0.37793,0.48291c-3.81079,6.71875 -11.52685,10.07813 -19.19043,8.35645c-3.05493,-0.67187 -5.82641,-2.22559 -8.03101,-4.39868c-1.74267,-1.70068 -3.13892,-3.7373 -4.08374,-6.10986c-0.34643,-0.82934 -0.24146,-1.74267 0.26245,-2.53003c0.5144,-0.74536 1.32276,-1.17578 2.23608,-1.17578zM51.0625,81.75879c4.3042,5.10205 10.69751,8.16748 17.46875,8.16748c6.80273,0 13.16455,-3.06543 17.46875,-8.16748c4.3042,5.10205 10.66602,8.16748 17.46875,8.16748c6.77124,0 13.16455,-3.06543 17.46875,-8.16748c5.42749,6.49829 14.07788,9.51123 22.67578,7.56909c2.47754,-0.5564 4.8186,-1.53271 6.88672,-2.84497v10.26709h-129v-10.26709c2.06811,1.31226 4.40918,2.28857 6.88672,2.84497c8.5979,1.94214 17.24829,-1.0708 22.67578,-7.56909zM21.5,102.125h129c2.96045,0 5.375,2.41455 5.375,5.375c0,2.96045 -2.41455,5.375 -5.375,5.375h-129c-2.96045,0 -5.375,-2.41455 -5.375,-5.375c0,-2.96045 2.41455,-5.375 5.375,-5.375zM21.5,118.25h129v13.4375c0,4.43018 -3.63232,8.0625 -8.0625,8.0625h-112.875c-4.43017,0 -8.0625,-3.63232 -8.0625,-8.0625zM32.25,123.625c-1.48022,0 -2.6875,1.20728 -2.6875,2.6875v5.375c0,1.48022 1.20728,2.6875 2.6875,2.6875c1.48022,0 2.6875,-1.20728 2.6875,-2.6875v-5.375c0,-1.48022 -1.20728,-2.6875 -2.6875,-2.6875zM45.6875,123.625c-1.48022,0 -2.6875,1.20728 -2.6875,2.6875v5.375c0,1.48022 1.20728,2.6875 2.6875,2.6875c1.48022,0 2.6875,-1.20728 2.6875,-2.6875v-5.375c0,-1.48022 -1.20728,-2.6875 -2.6875,-2.6875zM59.125,123.625c-1.48022,0 -2.6875,1.20728 -2.6875,2.6875v5.375c0,1.48022 1.20728,2.6875 2.6875,2.6875c1.48022,0 2.6875,-1.20728 2.6875,-2.6875v-5.375c0,-1.48022 -1.20728,-2.6875 -2.6875,-2.6875zM72.5625,123.625c-1.48022,0 -2.6875,1.20728 -2.6875,2.6875v5.375c0,1.48022 1.20728,2.6875 2.6875,2.6875c1.48022,0 2.6875,-1.20728 2.6875,-2.6875v-5.375c0,-1.48022 -1.20728,-2.6875 -2.6875,-2.6875zM86,123.625c-1.48022,0 -2.6875,1.20728 -2.6875,2.6875v5.375c0,1.48022 1.20728,2.6875 2.6875,2.6875c1.48022,0 2.6875,-1.20728 2.6875,-2.6875v-5.375c0,-1.48022 -1.20728,-2.6875 -2.6875,-2.6875zM99.4375,123.625c-1.48022,0 -2.6875,1.20728 -2.6875,2.6875v5.375c0,1.48022 1.20728,2.6875 2.6875,2.6875c1.48022,0 2.6875,-1.20728 2.6875,-2.6875v-5.375c0,-1.48022 -1.20728,-2.6875 -2.6875,-2.6875zM112.875,123.625c-1.48022,0 -2.6875,1.20728 -2.6875,2.6875v5.375c0,1.48022 1.20728,2.6875 2.6875,2.6875c1.48022,0 2.6875,-1.20728 2.6875,-2.6875v-5.375c0,-1.48022 -1.20728,-2.6875 -2.6875,-2.6875zM126.3125,123.625c-1.48022,0 -2.6875,1.20728 -2.6875,2.6875v5.375c0,1.48022 1.20728,2.6875 2.6875,2.6875c1.48022,0 2.6875,-1.20728 2.6875,-2.6875v-5.375c0,-1.48022 -1.20728,-2.6875 -2.6875,-2.6875zM139.75,123.625c-1.48022,0 -2.6875,1.20728 -2.6875,2.6875v5.375c0,1.48022 1.20728,2.6875 2.6875,2.6875c1.48022,0 2.6875,-1.20728 2.6875,-2.6875v-5.375c0,-1.48022 -1.20728,-2.6875 -2.6875,-2.6875z"/></g></g></g></svg>
