<?xml version="1.0"?>
<svg xmlns="http://www.w3.org/2000/svg" xmlns:xlink="http://www.w3.org/1999/xlink" version="1.1" viewBox="0 0 172 172" width="64px" height="64px"><g fill="none" fill-rule="nonzero" stroke="none" stroke-width="1" stroke-linecap="butt" stroke-linejoin="miter" stroke-miterlimit="10" stroke-dasharray="" stroke-dashoffset="0" font-family="none" font-weight="none" font-size="none" text-anchor="none" style="mix-blend-mode: normal"><path d="M0,172v-172h172v172z" fill="none"/><g fill="#00843c"><g id="surface1"><path d="M77.9375,16.125c-4.44067,0 -8.0625,3.62183 -8.0625,8.0625v2.6875h-27.79883c-3.59033,0 -6.96021,1.39624 -9.50073,3.93677l-6.81323,6.81323h-9.59522c-4.47217,0 -8.10449,3.62183 -8.10449,8.0625c0,4.44067 3.63233,8.0625 8.10449,8.0625h0.03149v10.75h-8.13599c-4.44067,0 -8.0625,3.62183 -8.0625,8.0625v2.05762c0,3.06543 1.71118,5.82642 4.45117,7.21216l11.73682,5.86841v54.73682c0,7.36963 6.00488,13.36401 13.37451,13.36401h112.875c7.36963,0 13.36401,-5.99438 13.36401,-13.36401v-54.74732l11.74732,-5.85791c2.73999,-1.37524 4.45117,-4.14673 4.45117,-7.21216v-2.05762c0,-4.44067 -3.62183,-8.0625 -8.0625,-8.0625h-8.13599v-10.75h0.04199c4.46167,0 8.09399,-3.62183 8.09399,-8.0625c0,-4.44067 -3.63232,-8.0625 -8.10449,-8.0625h-10.51904l-6.81323,-6.81323c-2.54053,-2.54053 -5.9104,-3.93677 -9.50073,-3.93677h-26.875v-2.6875c0,-4.44067 -3.62183,-8.0625 -8.0625,-8.0625zM77.9375,21.5h16.125c1.48022,0 2.6875,1.20728 2.6875,2.6875v2.6875h-21.5v-2.6875c0,-1.48022 1.20728,-2.6875 2.6875,-2.6875zM42.07617,32.25h86.92383c2.1521,0 4.17822,0.83984 5.70044,2.36206l3.01294,3.01294h-104.35059l3.01294,-3.01294c1.50122,-1.50122 3.57984,-2.36206 5.70044,-2.36206zM16.16699,43h139.67651c1.50122,0 2.71899,1.20728 2.71899,2.6875c0,1.48022 -1.21777,2.6875 -2.72949,2.6875h-139.66602c-1.51172,0 -2.72949,-1.20728 -2.72949,-2.6875c0,-1.48022 1.21777,-2.6875 2.72949,-2.6875zM21.43701,53.75h129.13647v88.6875c0,4.48267 -3.65332,8.13599 -8.13599,8.13599h-112.875c-4.48267,0 -8.12549,-3.65332 -8.12549,-8.13599zM8.0625,69.875h8.0625v11.77881l-9.25928,-4.64014c-0.92383,-0.45142 -1.49072,-1.37524 -1.49072,-2.39355v-2.05762c0,-1.48022 1.20728,-2.6875 2.6875,-2.6875zM155.875,69.875h8.0625c1.48022,0 2.6875,1.20728 2.6875,2.6875v2.05762c0,1.01831 -0.56689,1.94214 -1.48022,2.39355l-9.26978,4.64014zM32.25,69.97998c-1.48022,0 -2.6875,1.19678 -2.6875,2.6875v5.375c0,1.49072 1.20728,2.6875 2.6875,2.6875c1.48022,0 2.6875,-1.19678 2.6875,-2.6875v-5.375c0,-1.49072 -1.20728,-2.6875 -2.6875,-2.6875zM45.6875,69.97998c-1.48022,0 -2.6875,1.19678 -2.6875,2.6875v5.375c0,1.49072 1.20728,2.6875 2.6875,2.6875c1.48022,0 2.6875,-1.19678 2.6875,-2.6875v-5.375c0,-1.49072 -1.20728,-2.6875 -2.6875,-2.6875zM59.125,69.97998c-1.48022,0 -2.6875,1.19678 -2.6875,2.6875v5.375c0,1.49072 1.20728,2.6875 2.6875,2.6875c1.48022,0 2.6875,-1.19678 2.6875,-2.6875v-5.375c0,-1.49072 -1.20728,-2.6875 -2.6875,-2.6875zM72.5625,69.97998c-1.48022,0 -2.6875,1.19678 -2.6875,2.6875v5.375c0,1.49072 1.20728,2.6875 2.6875,2.6875c1.48022,0 2.6875,-1.19678 2.6875,-2.6875v-5.375c0,-1.49072 -1.20728,-2.6875 -2.6875,-2.6875zM86,69.97998c-1.48022,0 -2.6875,1.19678 -2.6875,2.6875v5.375c0,1.49072 1.20728,2.6875 2.6875,2.6875c1.48022,0 2.6875,-1.19678 2.6875,-2.6875v-5.375c0,-1.49072 -1.20728,-2.6875 -2.6875,-2.6875zM99.4375,69.97998c-1.48022,0 -2.6875,1.19678 -2.6875,2.6875v5.375c0,1.49072 1.20728,2.6875 2.6875,2.6875c1.48022,0 2.6875,-1.19678 2.6875,-2.6875v-5.375c0,-1.49072 -1.20728,-2.6875 -2.6875,-2.6875zM112.875,69.97998c-1.48022,0 -2.6875,1.19678 -2.6875,2.6875v5.375c0,1.49072 1.20728,2.6875 2.6875,2.6875c1.48022,0 2.6875,-1.19678 2.6875,-2.6875v-5.375c0,-1.49072 -1.20728,-2.6875 -2.6875,-2.6875zM126.3125,69.97998c-1.48022,0 -2.6875,1.19678 -2.6875,2.6875v5.375c0,1.49072 1.20728,2.6875 2.6875,2.6875c1.48022,0 2.6875,-1.19678 2.6875,-2.6875v-5.375c0,-1.49072 -1.20728,-2.6875 -2.6875,-2.6875zM139.75,69.97998c-1.48022,0 -2.6875,1.19678 -2.6875,2.6875v5.375c0,1.49072 1.20728,2.6875 2.6875,2.6875c1.48022,0 2.6875,-1.19678 2.6875,-2.6875v-5.375c0,-1.49072 -1.20728,-2.6875 -2.6875,-2.6875zM29.5625,139.75c-1.48022,0 -2.6875,1.19678 -2.6875,2.6875c0,1.49072 1.20728,2.6875 2.6875,2.6875h91.375c1.48022,0 2.6875,-1.19678 2.6875,-2.6875c0,-1.49072 -1.20728,-2.6875 -2.6875,-2.6875zM131.6875,139.75c-1.48022,0 -2.6875,1.19678 -2.6875,2.6875c0,1.49072 1.20728,2.6875 2.6875,2.6875h10.75c1.48022,0 2.6875,-1.19678 2.6875,-2.6875c0,-1.49072 -1.20728,-2.6875 -2.6875,-2.6875z"/></g></g></g></svg>
