<?xml version="1.0"?>
<svg xmlns="http://www.w3.org/2000/svg" xmlns:xlink="http://www.w3.org/1999/xlink" version="1.1" viewBox="0 0 172 172" width="64px" height="64px"><g fill="none" fill-rule="nonzero" stroke="none" stroke-width="1" stroke-linecap="butt" stroke-linejoin="miter" stroke-miterlimit="10" stroke-dasharray="" stroke-dashoffset="0" font-family="none" font-weight="none" font-size="none" text-anchor="none" style="mix-blend-mode: normal"><path d="M0,172v-172h172v172z" fill="none"/><g fill="#ec4d00"><g id="surface1"><path d="M75.25,0c-4.56665,0 -8.0625,3.49585 -8.0625,8.0625c0,1.34375 0.27295,2.6875 1.0813,3.7583l-20.9751,25.8042h-39.2312c-4.56665,0 -8.0625,3.49585 -8.0625,8.0625v16.125c0,3.7583 2.41455,6.71875 5.64795,7.80005v0.26245l12.3562,68.53125c0.80835,4.03125 4.03125,6.71875 8.0625,6.71875h120.13965c4.03125,0 7.25415,-2.6875 8.0625,-6.71875l11.8208,-68.53125v-0.26245c3.2229,-1.0813 5.64795,-4.04175 5.64795,-7.80005v-16.125c0.26245,-4.56665 -3.2334,-8.0625 -7.80005,-8.0625h-39.2312l-20.9751,-25.8042c0.80835,-1.0708 1.0813,-2.41455 1.0813,-3.7583c0,-4.56665 -3.49585,-8.0625 -8.0625,-8.0625c-4.56665,0 -8.0625,3.49585 -8.0625,8.0625c0,4.56665 3.49585,8.0625 8.0625,8.0625c1.0708,0 2.1521,-0.26245 2.94995,-0.5354l18.01465,22.0354h-63.4292l18.01465,-22.0354c0.79785,0.27295 1.87915,0.5354 2.94995,0.5354c4.56665,0 8.0625,-3.49585 8.0625,-8.0625c0,-4.56665 -3.49585,-8.0625 -8.0625,-8.0625zM75.25,4.3042c2.1521,0 3.7688,1.6062 3.7688,3.7583c0,2.1521 -1.6167,3.7583 -3.7688,3.7583c-2.1521,0 -3.7688,-1.6062 -3.7688,-3.7583c0,-2.1521 1.6167,-3.7583 3.7688,-3.7583zM96.75,4.3042c2.1521,0 3.7688,1.6062 3.7688,3.7583c0,2.1521 -1.6167,3.7583 -3.7688,3.7583c-2.1521,0 -3.7688,-1.6062 -3.7688,-3.7583c0,-2.1521 1.6167,-3.7583 3.7688,-3.7583zM8.0625,43h34.9375l-7.25415,9.1438c-0.80835,1.0708 -0.80835,2.94995 0.27295,3.7583c0.5354,0.5354 1.0708,0.5354 1.6062,0.5354c0.80835,0 1.6167,-0.27295 2.1521,-1.0813l10.2041,-12.3562h72.30005l10.2146,12.3562c0.5354,0.5459 1.34375,1.0813 2.1416,1.0813c0.5459,0 1.0813,-0.26245 1.6167,-0.5354c1.0708,-0.80835 1.34375,-2.6875 0.27295,-3.7583l-7.5271,-9.1438h34.9375c1.6167,0 2.6875,1.0708 2.6875,2.6875v16.125c0,1.6167 -1.0708,2.6875 -2.6875,2.6875c-1.34375,0 -2.41455,0.80835 -2.6875,2.1521l-0.5354,3.2229l-12.09375,67.7229c-0.27295,1.34375 -1.34375,2.1521 -2.6875,2.1521h-119.8667c-1.34375,0 -2.41455,-0.80835 -2.6875,-2.1521l-12.09375,-67.7229h120.4021c1.6167,0 2.6875,-1.0708 2.6875,-2.6875c0,-1.6167 -1.0708,-2.6875 -2.6875,-2.6875h-123.625c-1.6167,0 -2.6875,-1.0708 -2.6875,-2.6875v-16.125c0,-1.6167 1.0708,-2.6875 2.6875,-2.6875zM142.4375,64.5c-1.6167,0 -2.6875,1.0708 -2.6875,2.6875c0,1.6167 1.0708,2.6875 2.6875,2.6875h10.75c1.6167,0 2.6875,-1.0708 2.6875,-2.6875c0,-1.6167 -1.0708,-2.6875 -2.6875,-2.6875zM24.1875,75.25c-1.6167,0 -2.6875,1.0708 -2.6875,2.6875v5.375c0,1.6167 1.0708,2.6875 2.6875,2.6875c1.6167,0 2.6875,-1.0708 2.6875,-2.6875v-5.375c0,-1.6167 -1.0708,-2.6875 -2.6875,-2.6875zM37.625,75.25c-1.6167,0 -2.6875,1.0708 -2.6875,2.6875v5.375c0,1.6167 1.0708,2.6875 2.6875,2.6875c1.6167,0 2.6875,-1.0708 2.6875,-2.6875v-5.375c0,-1.6167 -1.0708,-2.6875 -2.6875,-2.6875zM51.0625,75.25c-1.6167,0 -2.6875,1.0708 -2.6875,2.6875v5.375c0,1.6167 1.0708,2.6875 2.6875,2.6875c1.6167,0 2.6875,-1.0708 2.6875,-2.6875v-5.375c0,-1.6167 -1.0708,-2.6875 -2.6875,-2.6875zM64.5,75.25c-1.6167,0 -2.6875,1.0708 -2.6875,2.6875v5.375c0,1.6167 1.0708,2.6875 2.6875,2.6875c1.6167,0 2.6875,-1.0708 2.6875,-2.6875v-5.375c0,-1.6167 -1.0708,-2.6875 -2.6875,-2.6875zM77.9375,75.25c-1.6167,0 -2.6875,1.0708 -2.6875,2.6875v5.375c0,1.6167 1.0708,2.6875 2.6875,2.6875c1.6167,0 2.6875,-1.0708 2.6875,-2.6875v-5.375c0,-1.6167 -1.0708,-2.6875 -2.6875,-2.6875zM94.0625,75.25c-1.6167,0 -2.6875,1.0708 -2.6875,2.6875v5.375c0,1.6167 1.0708,2.6875 2.6875,2.6875c1.6167,0 2.6875,-1.0708 2.6875,-2.6875v-5.375c0,-1.6167 -1.0708,-2.6875 -2.6875,-2.6875zM107.5,75.25c-1.6167,0 -2.6875,1.0708 -2.6875,2.6875v5.375c0,1.6167 1.0708,2.6875 2.6875,2.6875c1.6167,0 2.6875,-1.0708 2.6875,-2.6875v-5.375c0,-1.6167 -1.0708,-2.6875 -2.6875,-2.6875zM120.9375,75.25c-1.6167,0 -2.6875,1.0708 -2.6875,2.6875v5.375c0,1.6167 1.0708,2.6875 2.6875,2.6875c1.6167,0 2.6875,-1.0708 2.6875,-2.6875v-5.375c0,-1.6167 -1.0708,-2.6875 -2.6875,-2.6875zM134.375,75.25c-1.6167,0 -2.6875,1.0708 -2.6875,2.6875v5.375c0,1.6167 1.0708,2.6875 2.6875,2.6875c1.6167,0 2.6875,-1.0708 2.6875,-2.6875v-5.375c0,-1.6167 -1.0708,-2.6875 -2.6875,-2.6875zM147.8125,75.25c-1.6167,0 -2.6875,1.0708 -2.6875,2.6875v5.375c0,1.6167 1.0708,2.6875 2.6875,2.6875c1.6167,0 2.6875,-1.0708 2.6875,-2.6875v-5.375c0,-1.6167 -1.0708,-2.6875 -2.6875,-2.6875zM32.25,129c-1.6167,0 -2.6875,1.0708 -2.6875,2.6875c0,1.6167 1.0708,2.6875 2.6875,2.6875h83.3125c1.6167,0 2.6875,-1.0708 2.6875,-2.6875c0,-1.6167 -1.0708,-2.6875 -2.6875,-2.6875zM126.3125,129c-1.6167,0 -2.6875,1.0708 -2.6875,2.6875c0,1.6167 1.0708,2.6875 2.6875,2.6875h10.75c1.6167,0 2.6875,-1.0708 2.6875,-2.6875c0,-1.6167 -1.0708,-2.6875 -2.6875,-2.6875z"/></g></g></g></svg>
