<?xml version="1.0"?>
<svg xmlns="http://www.w3.org/2000/svg" xmlns:xlink="http://www.w3.org/1999/xlink" version="1.1" viewBox="0 0 172 172" width="64px" height="64px"><g fill="none" fill-rule="nonzero" stroke="none" stroke-width="1" stroke-linecap="butt" stroke-linejoin="miter" stroke-miterlimit="10" stroke-dasharray="" stroke-dashoffset="0" font-family="none" font-weight="none" font-size="none" text-anchor="none" style="mix-blend-mode: normal"><path d="M0,172v-172h172v172z" fill="none"/><g fill="#e76182"><path d="M96.75,13.4375c-2.96431,0 -5.375,2.41069 -5.375,5.375v5.375c0,2.6333 1.90628,4.81758 4.40918,5.27527l-14.14087,31.62537c-0.67456,1.96456 -1.01831,4.01924 -1.01831,6.09936v22.66528c-2.45618,-3.26242 -6.22577,-5.28783 -9.80518,-6.10986c2.96969,-10.00825 -1.15293,-13.79998 -1.67969,-14.23535c-0.62888,-0.51869 -1.46145,-0.72302 -2.26233,-0.5564c-4.16294,0.87344 -11.14973,4.00341 -14.2511,10.23035c-0.22306,-0.172 -0.44843,-0.34522 -0.68762,-0.50915c-2.44025,-1.67969 -9.33797,-5.12192 -20.64966,-0.8031c-1.04006,0.39775 -1.72693,1.39372 -1.72693,2.50903c0,4.41383 1.2986,7.85792 3.70056,10.1936c-10.47366,6.38121 -17.13806,17.39562 -17.13806,30.46008c0,20.69375 18.08419,37.53052 40.3125,37.53052c9.77529,0 18.42733,-3.37652 24.9801,-9.04932c1.81994,5.25391 6.77694,9.04932 12.6449,9.04932h43c7.40944,0 13.4375,-6.02806 13.4375,-13.4375v-78.04248c0,-1.9995 -0.31607,-3.97628 -0.93957,-5.87366l-13.67896,-31.88782c2.22764,-0.65623 3.86853,-2.69592 3.86853,-5.13354v-5.375c0,-2.96431 -2.41069,-5.375 -5.375,-5.375zM96.75,18.8125h37.625l0.00525,5.375h-37.63025zM101.62634,29.5625h28.5127l14.35083,33.43103c0.42194,1.32494 0.63513,2.69687 0.63513,4.08899v78.04248c0,4.44513 -3.61737,8.0625 -8.0625,8.0625h-43c-4.44513,0 -8.0625,-3.61737 -8.0625,-8.0625v-0.36743c5.07684,-6.37851 8.0625,-14.56323 8.0625,-23.72559c0,-8.68936 -2.99607,-16.42805 -8.05725,-22.53406v-28.62293h29.55725c1.4835,0 2.6875,-1.204 2.6875,-2.6875c0,-1.4835 -1.204,-2.6875 -2.6875,-2.6875h-29.26855c0.09931,-0.49971 0.19728,-1.00355 0.34119,-1.43823zM126.3125,64.5c-1.4835,0 -2.6875,1.204 -2.6875,2.6875c0,1.4835 1.204,2.6875 2.6875,2.6875h10.75c1.4835,0 2.6875,-1.204 2.6875,-2.6875c0,-1.4835 -1.204,-2.6875 -2.6875,-2.6875zM66.19018,74.7356c0.473,1.51306 0.74553,4.6529 -1.50122,10.26709c-0.33056,0.82775 -0.22692,1.76741 0.27295,2.50379c0.49988,0.73637 1.33334,1.18103 2.22559,1.18103c2.64988,0 9.57602,1.88074 10.61877,7.74756c-4.54188,1.85975 -11.33037,0.00962 -13.77869,-0.96057c-1.03737,-0.41119 -2.21845,-0.14525 -2.97095,0.67712c-0.7525,0.82237 -0.92505,2.02113 -0.42517,3.01819c0.82238,1.64475 2.56635,6.47822 1.12854,9.23828c-7.0305,-0.81163 -7.93988,-8.30417 -8.02051,-9.19104c-0.086,-1.02662 -0.74906,-1.9177 -1.71118,-2.28858c-0.31175,-0.12094 -0.64063,-0.17847 -0.96582,-0.17847c-0.67187,0 -1.32922,0.25393 -1.83716,0.72961c-0.06181,0.05912 -5.81781,5.36606 -14.13562,6.41956c0.45956,-4.22206 2.19611,-9.83667 8.15698,-9.83667c1.4835,0 2.6875,-1.204 2.6875,-2.6875c0,-1.4835 -1.204,-2.6875 -2.6875,-2.6875c-3.51256,0 -7.49754,-0.77824 -8.19897,-6.43005c8.03025,-2.50206 12.57586,-0.03091 13.84167,0.83984c1.49156,1.02663 2.1731,2.22546 2.1731,2.90271c0,1.4835 1.204,2.6875 2.6875,2.6875c1.4835,0 2.6875,-1.204 2.6875,-2.6875c0,-7.03856 6.50081,-10.15178 9.75268,-11.2644zM30.52307,99.29053c-0.61692,2.20876 -0.96057,4.70192 -0.96057,7.47461c0,1.4835 1.204,2.6875 2.6875,2.6875c7.47394,0 13.56087,-3.03931 17.14331,-5.3855c1.70925,4.65206 5.71946,9.78418 13.64221,9.78418c0.71219,0 1.3949,-0.28479 1.90015,-0.78735c3.139,-3.139 3.0412,-7.62675 2.28333,-11.10168c3.95849,0.81814 9.44527,1.1966 13.87317,-1.18628c4.79276,5.318 7.59534,12.29018 7.59534,20.25598c0,18.62975 -13.56381,32.15552 -32.25,32.15552c-19.264,0 -34.9375,-14.42608 -34.9375,-32.15552c0,-8.72949 3.35397,-16.27548 9.02307,-21.74146zM96.75,137.0625c-1.4835,0 -2.6875,1.204 -2.6875,2.6875v5.375c0,1.4835 1.204,2.6875 2.6875,2.6875c1.4835,0 2.6875,-1.204 2.6875,-2.6875v-5.375c0,-1.4835 -1.204,-2.6875 -2.6875,-2.6875zM110.1875,137.0625c-1.4835,0 -2.6875,1.204 -2.6875,2.6875v5.375c0,1.4835 1.204,2.6875 2.6875,2.6875c1.4835,0 2.6875,-1.204 2.6875,-2.6875v-5.375c0,-1.4835 -1.204,-2.6875 -2.6875,-2.6875zM123.625,137.0625c-1.4835,0 -2.6875,1.204 -2.6875,2.6875v5.375c0,1.4835 1.204,2.6875 2.6875,2.6875c1.4835,0 2.6875,-1.204 2.6875,-2.6875v-5.375c0,-1.4835 -1.204,-2.6875 -2.6875,-2.6875zM137.0625,137.0625c-1.4835,0 -2.6875,1.204 -2.6875,2.6875v5.375c0,1.4835 1.204,2.6875 2.6875,2.6875c1.4835,0 2.6875,-1.204 2.6875,-2.6875v-5.375c0,-1.4835 -1.204,-2.6875 -2.6875,-2.6875z"/></g></g></svg>
